<svg width="22" height="27" viewBox="0 0 22 27" fill="none" xmlns="http://www.w3.org/2000/svg">
<path d="M17.9385 14.5223C17.9093 11.2803 20.5931 9.70302 20.7158 9.62959C19.1959 7.41358 16.8401 7.1108 16.0122 7.08666C14.0336 6.87843 12.1143 8.27061 11.1064 8.27061C10.0784 8.27061 8.52623 7.10678 6.85341 7.14098C4.70077 7.17417 2.68694 8.42049 1.58245 10.3559C-0.696934 14.302 1.00305 20.1011 3.18688 23.2908C4.27929 24.853 5.55579 26.5972 7.2266 26.5359C8.8612 26.4685 9.47179 25.4938 11.4444 25.4938C13.3989 25.4938 13.9722 26.5359 15.6762 26.4967C17.4305 26.4685 18.535 24.9274 19.5892 23.3512C20.8516 21.5607 21.3586 19.7973 21.3787 19.7068C21.3375 19.6927 17.9717 18.4081 17.9385 14.5223Z" fill="#1D0E09"/>
<path d="M14.7192 4.98816C15.5983 3.8887 16.1999 2.39291 16.0329 0.875C14.7604 0.931331 13.1691 1.75517 12.2527 2.83048C11.4419 3.77805 10.7177 5.33117 10.9048 6.79175C12.3342 6.89838 13.8018 6.07051 14.7192 4.98816Z" fill="#1D0E09"/>
</svg>
