<svg width="21" height="23" viewBox="0 0 21 23" fill="none" xmlns="http://www.w3.org/2000/svg">
<path d="M0.40625 1.56027C0.40625 1.21818 0.474667 0.94451 0.543085 0.739258C0.474667 0.94451 0.40625 1.2866 0.40625 1.56027Z" fill="#1D0E09"/>
<path d="M0.40625 1.56027C0.40625 1.21818 0.474667 0.94451 0.543085 0.739258C0.474667 0.94451 0.40625 1.2866 0.40625 1.56027Z" fill="url(#paint0_linear_2803_4673)"/>
<path d="M0.818534 0.329102C0.750116 0.397519 0.681699 0.534354 0.613281 0.602771C0.681699 0.534354 0.750116 0.465936 0.818534 0.329102Z" fill="#1D0E09"/>
<path d="M0.818534 0.329102C0.750116 0.397519 0.681699 0.534354 0.613281 0.602771C0.681699 0.534354 0.750116 0.465936 0.818534 0.329102Z" fill="url(#paint1_linear_2803_4673)"/>
<path d="M0.885172 21.6068L11.4899 11.0022L0.885172 0.397461C0.611502 0.67113 0.40625 1.08163 0.40625 1.62897V20.3069C0.40625 20.7174 0.474668 21.1963 0.816755 21.5384L0.885172 21.6068Z" fill="#1D0E09"/>
<path d="M0.885172 21.6068L11.4899 11.0022L0.885172 0.397461C0.611502 0.67113 0.40625 1.08163 0.40625 1.62897V20.3069C0.40625 20.7174 0.474668 21.1963 0.816755 21.5384L0.885172 21.6068Z" fill="#1D0E09"/>
<path d="M0.887251 0.260742C0.818833 0.32916 0.818833 0.32916 0.887251 0.260742V0.260742Z" fill="#1D0E09"/>
<path d="M0.887251 0.260742C0.818833 0.32916 0.818833 0.32916 0.887251 0.260742V0.260742Z" fill="url(#paint2_linear_2803_4673)"/>
<path d="M20.1773 10.9336C20.0405 10.4547 19.7668 10.0442 19.2879 9.83894L15.046 7.44434L11.4883 11.002L14.9776 14.5597L19.2194 12.1651C19.6984 11.9599 19.972 11.5494 20.1089 11.0705C20.1773 11.002 20.1773 11.002 20.1773 10.9336V10.9336Z" fill="#1D0E09"/>
<path d="M20.1773 10.9336C20.0405 10.4547 19.7668 10.0442 19.2879 9.83894L15.046 7.44434L11.4883 11.002L14.9776 14.5597L19.2194 12.1651C19.6984 11.9599 19.972 11.5494 20.1089 11.0705C20.1773 11.002 20.1773 11.002 20.1773 10.9336V10.9336Z" fill="#1D0E09"/>
<path d="M19.9023 10.3174C19.9708 10.3858 19.9708 10.4542 20.0392 10.5226C19.9708 10.4542 19.9708 10.3858 19.9023 10.3174Z" fill="#1D0E09"/>
<path d="M19.9023 10.3174C19.9708 10.3858 19.9708 10.4542 20.0392 10.5226C19.9708 10.4542 19.9708 10.3858 19.9023 10.3174Z" fill="url(#paint3_linear_2803_4673)"/>
<path d="M15.0469 14.6281L19.2204 12.2335L19.2888 12.165L19.2204 12.2335L15.0469 14.6281Z" fill="#1D0E09"/>
<path d="M15.0469 14.6281L19.2204 12.2335L19.2888 12.165L19.2204 12.2335L15.0469 14.6281Z" fill="url(#paint4_linear_2803_4673)"/>
<path d="M19.9023 11.6858C19.9708 11.6174 20.0392 11.5489 20.0392 11.4121C20.0392 11.4805 19.9708 11.6174 19.9023 11.6858Z" fill="#1D0E09"/>
<path d="M19.9023 11.6858C19.9708 11.6174 20.0392 11.5489 20.0392 11.4121C20.0392 11.4805 19.9708 11.6174 19.9023 11.6858Z" fill="url(#paint5_linear_2803_4673)"/>
<path d="M20.1094 10.5918C20.1094 10.6602 20.1778 10.797 20.1778 10.8655C20.1094 10.797 20.1094 10.7286 20.1094 10.5918Z" fill="#1D0E09"/>
<path d="M20.1094 10.5918C20.1094 10.6602 20.1778 10.797 20.1778 10.8655C20.1094 10.797 20.1094 10.7286 20.1094 10.5918Z" fill="url(#paint6_linear_2803_4673)"/>
<path d="M20.1114 11.1387C20.1114 11.2071 20.1114 11.3439 20.043 11.4123C20.1114 11.2755 20.1114 11.2071 20.1114 11.1387Z" fill="#1D0E09"/>
<path d="M20.1114 11.1387C20.1114 11.2071 20.1114 11.3439 20.043 11.4123C20.1114 11.2755 20.1114 11.2071 20.1114 11.1387Z" fill="url(#paint7_linear_2803_4673)"/>
<path d="M1.2249 21.9484C1.08806 21.8799 1.01965 21.8799 0.882812 21.8115C1.01965 21.8115 1.15648 21.8799 1.2249 21.9484Z" fill="#1D0E09"/>
<path d="M1.2249 21.9484C1.08806 21.8799 1.01965 21.8799 0.882812 21.8115C1.01965 21.8115 1.15648 21.8799 1.2249 21.9484Z" fill="url(#paint8_linear_2803_4673)"/>
<path d="M0.953033 21.6749C1.43196 21.9486 2.11613 21.9486 2.59505 21.6065L14.9102 14.6279L11.4893 11.207L0.953033 21.6749Z" fill="#1D0E09"/>
<path d="M0.953033 21.6749C1.43196 21.9486 2.11613 21.9486 2.59505 21.6065L14.9102 14.6279L11.4893 11.207L0.953033 21.6749Z" fill="#797979"/>
<path d="M1.29688 21.9484C1.70738 22.0853 2.1863 22.0168 2.59681 21.7432C2.1863 22.0168 1.70738 22.0853 1.29688 21.9484Z" fill="#1D0E09"/>
<path d="M1.29688 21.9484C1.70738 22.0853 2.1863 22.0168 2.59681 21.7432C2.1863 22.0168 1.70738 22.0853 1.29688 21.9484Z" fill="url(#paint9_linear_2803_4673)"/>
<path d="M11.4875 11.002L0.882812 21.6066C0.882812 21.6066 0.95123 21.6066 0.95123 21.6751L11.4875 11.1388V11.002V11.002Z" fill="#1D0E09"/>
<path d="M11.4875 11.002L0.882812 21.6066C0.882812 21.6066 0.95123 21.6066 0.95123 21.6751L11.4875 11.1388V11.002V11.002Z" fill="url(#paint10_linear_2803_4673)"/>
<path d="M11.4883 11.1388L14.9092 14.5597H14.9776L11.4883 11.002V11.1388Z" fill="#1D0E09"/>
<path d="M11.4883 11.1388L14.9092 14.5597H14.9776L11.4883 11.002V11.1388Z" fill="url(#paint11_linear_2803_4673)"/>
<path d="M14.9103 7.4446L2.59514 0.466027C1.91097 0.12394 1.36363 0.12394 0.953125 0.397609L11.4894 10.9339L14.9103 7.4446V7.4446Z" fill="#1D0E09"/>
<path d="M14.9103 7.4446L2.59514 0.466027C1.91097 0.12394 1.36363 0.12394 0.953125 0.397609L11.4894 10.9339L14.9103 7.4446V7.4446Z" fill="#797979"/>
<path d="M15.1141 7.37615L2.59375 0.260742L15.0457 7.37615H15.1141Z" fill="#1D0E09"/>
<path d="M15.1141 7.37615L2.59375 0.260742L15.0457 7.37615H15.1141Z" fill="url(#paint12_linear_2803_4673)"/>
<path d="M2.59278 0.260332C2.2507 0.0550803 1.84019 -0.0817546 1.42969 0.0550802C1.77177 -0.0133372 2.18228 0.0550803 2.59278 0.260332Z" fill="#1D0E09"/>
<path d="M2.59278 0.260332C2.2507 0.0550803 1.84019 -0.0817546 1.42969 0.0550802C1.77177 -0.0133372 2.18228 0.0550803 2.59278 0.260332Z" fill="url(#paint13_linear_2803_4673)"/>
<path d="M0.884823 0.329102C0.884823 0.329102 0.816406 0.329102 0.816406 0.397519L0.884823 0.329102C0.816406 0.329102 0.816406 0.329102 0.884823 0.329102Z" fill="#1D0E09"/>
<path d="M0.884823 0.329102C0.884823 0.329102 0.816406 0.329102 0.816406 0.397519L0.884823 0.329102C0.816406 0.329102 0.816406 0.329102 0.884823 0.329102Z" fill="url(#paint14_linear_2803_4673)"/>
<path d="M0.884823 0.329102C0.884823 0.329102 0.816406 0.329102 0.816406 0.397519L0.884823 0.329102C0.816406 0.329102 0.816406 0.329102 0.884823 0.329102Z" fill="url(#paint15_linear_2803_4673)"/>
<path d="M0.953657 0.397461C0.885239 0.397461 0.885239 0.397461 0.953657 0.397461L11.4899 11.0022V10.8653L0.953657 0.397461V0.397461Z" fill="#1D0E09"/>
<path d="M0.953657 0.397461C0.885239 0.397461 0.885239 0.397461 0.953657 0.397461L11.4899 11.0022V10.8653L0.953657 0.397461V0.397461Z" fill="url(#paint16_linear_2803_4673)"/>
<path d="M14.9092 7.44434L11.4883 10.8652V11.002L14.9776 7.44434H14.9092Z" fill="#1D0E09"/>
<path d="M14.9092 7.44434L11.4883 10.8652V11.002L14.9776 7.44434H14.9092Z" fill="url(#paint17_linear_2803_4673)"/>
<path d="M0.885876 21.7437C0.885876 21.6753 0.817459 21.6753 0.885876 21.7437V21.7437Z" fill="#1D0E09"/>
<path opacity="0.2" d="M0.885876 21.7437C0.885876 21.6753 0.817459 21.6753 0.885876 21.7437V21.7437Z" fill="#1D0E09"/>
<path d="M15.0452 14.6279L14.9768 14.6963L14.9084 14.6279L2.59325 21.6065C2.11433 21.9486 1.43015 21.9486 0.95123 21.6749L0.882812 21.7433H0.95123C1.08806 21.8118 1.15648 21.8802 1.29332 21.8802H1.36173C1.77224 22.017 2.25116 21.9486 2.66166 21.6749L15.0452 14.6279V14.6279Z" fill="#1D0E09"/>
<path d="M15.0452 14.6279L14.9768 14.6963L14.9084 14.6279L2.59325 21.6065C2.11433 21.9486 1.43015 21.9486 0.95123 21.6749L0.882812 21.7433H0.95123C1.08806 21.8118 1.15648 21.8802 1.29332 21.8802H1.36173C1.77224 22.017 2.25116 21.9486 2.66166 21.6749L15.0452 14.6279V14.6279Z" fill="url(#paint18_linear_2803_4673)"/>
<path opacity="0.2" d="M15.0452 14.6279L14.9768 14.6963L14.9084 14.6279L2.59325 21.6065C2.11433 21.9486 1.43015 21.9486 0.95123 21.6749L0.882812 21.7433H0.95123C1.08806 21.8118 1.15648 21.8802 1.29332 21.8802H1.36173C1.77224 22.017 2.25116 21.9486 2.66166 21.6749L15.0452 14.6279V14.6279Z" fill="#1D0E09"/>
<path d="M0.816406 21.6753C0.884824 21.7438 0.884824 21.7438 0.816406 21.6753H0.953241C0.953241 21.6069 0.884824 21.6069 0.816406 21.6753Z" fill="#1D0E09"/>
<path d="M0.816406 21.6753C0.884824 21.7438 0.884824 21.7438 0.816406 21.6753H0.953241C0.953241 21.6069 0.884824 21.6069 0.816406 21.6753Z" fill="url(#paint19_linear_2803_4673)"/>
<path d="M0.816406 21.6753C0.884824 21.7438 0.884824 21.7438 0.816406 21.6753H0.953241C0.953241 21.6069 0.884824 21.6069 0.816406 21.6753Z" fill="url(#paint20_linear_2803_4673)"/>
<path opacity="0.2" d="M0.816406 21.6753C0.884824 21.7438 0.884824 21.7438 0.816406 21.6753H0.953241C0.953241 21.6069 0.884824 21.6069 0.816406 21.6753Z" fill="#1D0E09"/>
<path d="M14.9786 14.5596H14.9102L14.9786 14.628H15.047L14.9786 14.5596Z" fill="#1D0E09"/>
<path d="M14.9786 14.5596H14.9102L14.9786 14.628H15.047L14.9786 14.5596Z" fill="url(#paint21_linear_2803_4673)"/>
<path d="M14.9786 14.5596H14.9102L14.9786 14.628H15.047L14.9786 14.5596Z" fill="url(#paint22_linear_2803_4673)"/>
<path opacity="0.2" d="M14.9786 14.5596H14.9102L14.9786 14.628H15.047L14.9786 14.5596Z" fill="#1D0E09"/>
<path d="M0.884609 21.6065C0.542522 21.196 0.405688 20.7855 0.474105 20.375V20.5118C0.405688 20.9223 0.542522 21.3328 0.884609 21.6065V21.6065Z" fill="#1D0E09"/>
<path d="M0.884609 21.6065C0.542522 21.196 0.405688 20.7855 0.474105 20.375V20.5118C0.405688 20.9223 0.542522 21.3328 0.884609 21.6065V21.6065Z" fill="url(#paint23_linear_2803_4673)"/>
<path opacity="0.12" d="M0.884609 21.6065C0.542522 21.196 0.405688 20.7855 0.474105 20.375V20.5118C0.405688 20.9223 0.542522 21.3328 0.884609 21.6065V21.6065Z" fill="#1D0E09"/>
<path d="M0.884823 21.6064H0.816406V21.6749L0.884823 21.6064Z" fill="#1D0E09"/>
<path d="M0.884823 21.6064H0.816406V21.6749L0.884823 21.6064Z" fill="url(#paint24_linear_2803_4673)"/>
<path opacity="0.2" d="M0.884823 21.6064H0.816406V21.6749L0.884823 21.6064Z" fill="#1D0E09"/>
<path opacity="0.12" d="M0.884823 21.6064H0.816406V21.6749L0.884823 21.6064Z" fill="#1D0E09"/>
<path d="M0.887251 21.6064C0.818833 21.6749 0.818833 21.6749 0.887251 21.6064V21.6064Z" fill="#1D0E09"/>
<path d="M0.887251 21.6064C0.818833 21.6749 0.818833 21.6749 0.887251 21.6064V21.6064Z" fill="url(#paint25_linear_2803_4673)"/>
<path d="M0.887251 21.6064C0.818833 21.6749 0.818833 21.6749 0.887251 21.6064V21.6064Z" fill="url(#paint26_linear_2803_4673)"/>
<path opacity="0.2" d="M0.887251 21.6064C0.818833 21.6749 0.818833 21.6749 0.887251 21.6064V21.6064Z" fill="#1D0E09"/>
<path opacity="0.12" d="M0.887251 21.6064C0.818833 21.6749 0.818833 21.6749 0.887251 21.6064V21.6064Z" fill="#1D0E09"/>
<path d="M19.3594 12.1645C19.5646 12.0276 19.7699 11.8908 19.9067 11.6855C19.7699 11.8908 19.5646 12.0276 19.3594 12.1645Z" fill="#1D0E09"/>
<path opacity="0.12" d="M19.3594 12.1645C19.5646 12.0276 19.7699 11.8908 19.9067 11.6855C19.7699 11.8908 19.5646 12.0276 19.3594 12.1645Z" fill="#1D0E09"/>
<path d="M20.1094 11.1388V11.002V11.0704C20.1778 11.0704 20.1094 11.0704 20.1094 11.1388V11.1388Z" fill="#1D0E09"/>
<path opacity="0.12" d="M20.1094 11.1388V11.002V11.0704C20.1778 11.0704 20.1094 11.0704 20.1094 11.1388V11.1388Z" fill="#1D0E09"/>
<path d="M20.1098 11.4124C20.1098 11.344 20.1782 11.2071 20.1782 11.1387V11.0703C20.0414 11.5492 19.7677 11.9597 19.2888 12.165L15.0469 14.5596L15.1154 14.628L19.2888 12.2334C19.2888 12.2334 19.3572 12.2334 19.3572 12.165C19.6309 12.0282 19.7677 11.8229 19.9046 11.6861C19.973 11.6177 20.0414 11.4808 20.1098 11.4124C20.0414 11.4124 20.0414 11.4124 20.1098 11.4124V11.4124Z" fill="#1D0E09"/>
<path d="M20.1098 11.4124C20.1098 11.344 20.1782 11.2071 20.1782 11.1387V11.0703C20.0414 11.5492 19.7677 11.9597 19.2888 12.165L15.0469 14.5596L15.1154 14.628L19.2888 12.2334C19.2888 12.2334 19.3572 12.2334 19.3572 12.165C19.6309 12.0282 19.7677 11.8229 19.9046 11.6861C19.973 11.6177 20.0414 11.4808 20.1098 11.4124C20.0414 11.4124 20.0414 11.4124 20.1098 11.4124V11.4124Z" fill="url(#paint27_linear_2803_4673)"/>
<path opacity="0.12" d="M20.1098 11.4124C20.1098 11.344 20.1782 11.2071 20.1782 11.1387V11.0703C20.0414 11.5492 19.7677 11.9597 19.2888 12.165L15.0469 14.5596L15.1154 14.628L19.2888 12.2334C19.2888 12.2334 19.3572 12.2334 19.3572 12.165C19.6309 12.0282 19.7677 11.8229 19.9046 11.6861C19.973 11.6177 20.0414 11.4808 20.1098 11.4124C20.0414 11.4124 20.0414 11.4124 20.1098 11.4124V11.4124Z" fill="#1D0E09"/>
<path d="M15.0489 14.628L14.9805 14.5596L15.0489 14.628Z" fill="#1D0E09"/>
<path d="M15.0489 14.628L14.9805 14.5596L15.0489 14.628Z" fill="url(#paint28_linear_2803_4673)"/>
<path d="M15.0489 14.628L14.9805 14.5596L15.0489 14.628Z" fill="url(#paint29_linear_2803_4673)"/>
<path opacity="0.12" d="M15.0489 14.628L14.9805 14.5596L15.0489 14.628Z" fill="#1D0E09"/>
<path d="M15.0489 14.628L14.9805 14.5596L15.0489 14.628Z" fill="#1D0E09"/>
<path d="M15.0489 14.628L14.9805 14.5596L15.0489 14.628Z" fill="url(#paint30_linear_2803_4673)"/>
<path d="M15.0489 14.628L14.9805 14.5596L15.0489 14.628Z" fill="url(#paint31_linear_2803_4673)"/>
<path opacity="0.2" d="M15.0489 14.628L14.9805 14.5596L15.0489 14.628Z" fill="#1D0E09"/>
<path opacity="0.12" d="M15.0489 14.628L14.9805 14.5596L15.0489 14.628Z" fill="#1D0E09"/>
<path d="M20.1788 11.0021V10.8652C20.1104 10.9337 20.1788 10.9337 20.1788 11.0021Z" fill="#1D0E09"/>
<path opacity="0.25" d="M20.1788 11.0021V10.8652C20.1104 10.9337 20.1788 10.9337 20.1788 11.0021Z" fill="white"/>
<path d="M0.542969 0.738813C0.611386 0.670396 0.611386 0.670396 0.542969 0.738813C0.611386 0.670396 0.611386 0.670396 0.542969 0.738813Z" fill="#1D0E09"/>
<path opacity="0.25" d="M0.542969 0.738813C0.611386 0.670396 0.611386 0.670396 0.542969 0.738813C0.611386 0.670396 0.611386 0.670396 0.542969 0.738813Z" fill="white"/>
<path d="M19.2888 9.77058L15.0469 7.37598L19.2888 9.77058Z" fill="#1D0E09"/>
<path opacity="0.25" d="M19.2888 9.77058L15.0469 7.37598L19.2888 9.77058Z" fill="white"/>
<path d="M19.9029 10.3178C19.7661 10.0442 19.4924 9.90734 19.2188 9.77051C19.5608 9.90734 19.7661 10.1126 19.9029 10.3178Z" fill="#1D0E09"/>
<path opacity="0.25" d="M19.9029 10.3178C19.7661 10.0442 19.4924 9.90734 19.2188 9.77051C19.5608 9.90734 19.7661 10.1126 19.9029 10.3178Z" fill="white"/>
<path d="M0.953125 0.25994C1.08996 0.123105 1.29521 0.0546875 1.43205 0.0546875C1.22679 0.0546875 1.08996 0.123105 0.953125 0.25994Z" fill="#1D0E09"/>
<path opacity="0.25" d="M0.953125 0.25994C1.08996 0.123105 1.29521 0.0546875 1.43205 0.0546875C1.22679 0.0546875 1.08996 0.123105 0.953125 0.25994Z" fill="white"/>
<path d="M20.043 10.5225L20.1114 10.5909C20.043 10.5909 20.043 10.5909 20.043 10.5225Z" fill="#1D0E09"/>
<path opacity="0.25" d="M20.043 10.5225L20.1114 10.5909C20.043 10.5909 20.043 10.5909 20.043 10.5225Z" fill="white"/>
<path d="M0.884702 0.397519L0.816285 0.329102C0.747867 0.397519 0.67945 0.534354 0.611032 0.602771V0.671188C0.542615 0.876441 0.474198 1.15011 0.474198 1.4922V1.62903C0.40578 1.08169 0.611032 0.671189 0.884702 0.397519V0.397519Z" fill="#1D0E09"/>
<path d="M0.884702 0.397519L0.816285 0.329102C0.747867 0.397519 0.67945 0.534354 0.611032 0.602771V0.671188C0.542615 0.876441 0.474198 1.15011 0.474198 1.4922V1.62903C0.40578 1.08169 0.611032 0.671189 0.884702 0.397519V0.397519Z" fill="url(#paint32_linear_2803_4673)"/>
<path opacity="0.25" d="M0.884702 0.397519L0.816285 0.329102C0.747867 0.397519 0.67945 0.534354 0.611032 0.602771V0.671188C0.542615 0.876441 0.474198 1.15011 0.474198 1.4922V1.62903C0.40578 1.08169 0.611032 0.671189 0.884702 0.397519V0.397519Z" fill="white"/>
<path d="M14.9805 7.44434L19.2223 9.83894C19.7013 10.0442 19.9749 10.4547 20.1118 10.9336V10.8652C20.1118 10.7968 20.1118 10.66 20.0434 10.5915C20.0434 10.5915 20.0434 10.5231 19.9749 10.5231C19.9749 10.4547 19.9065 10.3863 19.8381 10.3179C19.7013 10.1126 19.496 9.90736 19.1539 9.77053L14.9805 7.44434V7.44434Z" fill="#1D0E09"/>
<path d="M14.9805 7.44434L19.2223 9.83894C19.7013 10.0442 19.9749 10.4547 20.1118 10.9336V10.8652C20.1118 10.7968 20.1118 10.66 20.0434 10.5915C20.0434 10.5915 20.0434 10.5231 19.9749 10.5231C19.9749 10.4547 19.9065 10.3863 19.8381 10.3179C19.7013 10.1126 19.496 9.90736 19.1539 9.77053L14.9805 7.44434V7.44434Z" fill="url(#paint33_linear_2803_4673)"/>
<path opacity="0.25" d="M14.9805 7.44434L19.2223 9.83894C19.7013 10.0442 19.9749 10.4547 20.1118 10.9336V10.8652C20.1118 10.7968 20.1118 10.66 20.0434 10.5915C20.0434 10.5915 20.0434 10.5231 19.9749 10.5231C19.9749 10.4547 19.9065 10.3863 19.8381 10.3179C19.7013 10.1126 19.496 9.90736 19.1539 9.77053L14.9805 7.44434V7.44434Z" fill="white"/>
<path d="M0.953241 0.39704C1.36375 0.0549534 1.91108 0.0549534 2.59526 0.39704L14.9104 7.37561L14.9788 7.3072L15.0472 7.37561L2.59526 0.260206C2.18475 0.0549535 1.77425 -0.013464 1.43216 0.0549534C1.22691 0.123371 1.09008 0.191788 0.884823 0.260206C0.884823 0.260206 0.816406 0.260205 0.816406 0.328623L0.953241 0.39704V0.39704Z" fill="#1D0E09"/>
<path d="M0.953241 0.39704C1.36375 0.0549534 1.91108 0.0549534 2.59526 0.39704L14.9104 7.37561L14.9788 7.3072L15.0472 7.37561L2.59526 0.260206C2.18475 0.0549535 1.77425 -0.013464 1.43216 0.0549534C1.22691 0.123371 1.09008 0.191788 0.884823 0.260206C0.884823 0.260206 0.816406 0.260205 0.816406 0.328623L0.953241 0.39704V0.39704Z" fill="url(#paint34_linear_2803_4673)"/>
<path opacity="0.25" d="M0.953241 0.39704C1.36375 0.0549534 1.91108 0.0549534 2.59526 0.39704L14.9104 7.37561L14.9788 7.3072L15.0472 7.37561L2.59526 0.260206C2.18475 0.0549535 1.77425 -0.013464 1.43216 0.0549534C1.22691 0.123371 1.09008 0.191788 0.884823 0.260206C0.884823 0.260206 0.816406 0.260205 0.816406 0.328623L0.953241 0.39704V0.39704Z" fill="white"/>
<path d="M0.887251 0.329102C0.818833 0.329102 0.818833 0.329102 0.887251 0.329102V0.465937L0.955668 0.397519L0.887251 0.329102Z" fill="#1D0E09"/>
<path d="M0.887251 0.329102C0.818833 0.329102 0.818833 0.329102 0.887251 0.329102V0.465937L0.955668 0.397519L0.887251 0.329102Z" fill="url(#paint35_linear_2803_4673)"/>
<path d="M0.887251 0.329102C0.818833 0.329102 0.818833 0.329102 0.887251 0.329102V0.465937L0.955668 0.397519L0.887251 0.329102Z" fill="url(#paint36_linear_2803_4673)"/>
<path opacity="0.25" d="M0.887251 0.329102C0.818833 0.329102 0.818833 0.329102 0.887251 0.329102V0.465937L0.955668 0.397519L0.887251 0.329102Z" fill="white"/>
<path d="M15.047 7.37598H14.9786L14.9102 7.44439H14.9786L15.047 7.37598Z" fill="#1D0E09"/>
<path d="M15.047 7.37598H14.9786L14.9102 7.44439H14.9786L15.047 7.37598Z" fill="url(#paint37_linear_2803_4673)"/>
<path d="M15.047 7.37598H14.9786L14.9102 7.44439H14.9786L15.047 7.37598Z" fill="url(#paint38_linear_2803_4673)"/>
<path opacity="0.25" d="M15.047 7.37598H14.9786L14.9102 7.44439H14.9786L15.047 7.37598Z" fill="white"/>
<defs>
<linearGradient id="paint0_linear_2803_4673" x1="11.0725" y1="21.677" x2="3.66427" y2="7.32717" gradientUnits="userSpaceOnUse">
<stop stop-color="#00A0FF"/>
<stop offset="0.01" stop-color="#00A1FF"/>
<stop offset="0.26" stop-color="#00BEFF"/>
<stop offset="0.51" stop-color="#00D2FF"/>
<stop offset="0.76" stop-color="#00DFFF"/>
<stop offset="1" stop-color="#00E3FF"/>
</linearGradient>
<linearGradient id="paint1_linear_2803_4673" x1="11.5423" y1="21.4358" x2="4.13403" y2="7.08602" gradientUnits="userSpaceOnUse">
<stop stop-color="#00A0FF"/>
<stop offset="0.01" stop-color="#00A1FF"/>
<stop offset="0.26" stop-color="#00BEFF"/>
<stop offset="0.51" stop-color="#00D2FF"/>
<stop offset="0.76" stop-color="#00DFFF"/>
<stop offset="1" stop-color="#00E3FF"/>
</linearGradient>
<linearGradient id="paint2_linear_2803_4673" x1="11.7307" y1="21.3388" x2="4.3218" y2="6.98891" gradientUnits="userSpaceOnUse">
<stop stop-color="#00A0FF"/>
<stop offset="0.01" stop-color="#00A1FF"/>
<stop offset="0.26" stop-color="#00BEFF"/>
<stop offset="0.51" stop-color="#00D2FF"/>
<stop offset="0.76" stop-color="#00DFFF"/>
<stop offset="1" stop-color="#00E3FF"/>
</linearGradient>
<linearGradient id="paint3_linear_2803_4673" x1="20.826" y1="10.42" x2="0.107752" y2="10.42" gradientUnits="userSpaceOnUse">
<stop stop-color="#FFE000"/>
<stop offset="0.41" stop-color="#FFBD00"/>
<stop offset="0.78" stop-color="#FFA500"/>
<stop offset="1" stop-color="#FF9C00"/>
</linearGradient>
<linearGradient id="paint4_linear_2803_4673" x1="20.8282" y1="13.3966" x2="0.11006" y2="13.3966" gradientUnits="userSpaceOnUse">
<stop stop-color="#FFE000"/>
<stop offset="0.41" stop-color="#FFBD00"/>
<stop offset="0.78" stop-color="#FFA500"/>
<stop offset="1" stop-color="#FF9C00"/>
</linearGradient>
<linearGradient id="paint5_linear_2803_4673" x1="20.826" y1="11.5489" x2="0.107752" y2="11.5489" gradientUnits="userSpaceOnUse">
<stop stop-color="#FFE000"/>
<stop offset="0.41" stop-color="#FFBD00"/>
<stop offset="0.78" stop-color="#FFA500"/>
<stop offset="1" stop-color="#FF9C00"/>
</linearGradient>
<linearGradient id="paint6_linear_2803_4673" x1="20.8278" y1="10.7286" x2="0.109149" y2="10.7286" gradientUnits="userSpaceOnUse">
<stop stop-color="#FFE000"/>
<stop offset="0.41" stop-color="#FFBD00"/>
<stop offset="0.78" stop-color="#FFA500"/>
<stop offset="1" stop-color="#FF9C00"/>
</linearGradient>
<linearGradient id="paint7_linear_2803_4673" x1="20.8298" y1="11.2755" x2="0.11192" y2="11.2755" gradientUnits="userSpaceOnUse">
<stop stop-color="#FFE000"/>
<stop offset="0.41" stop-color="#FFBD00"/>
<stop offset="0.78" stop-color="#FFA500"/>
<stop offset="1" stop-color="#FF9C00"/>
</linearGradient>
<linearGradient id="paint8_linear_2803_4673" x1="5.9026" y1="25.6066" x2="-2.21446" y2="19.3649" gradientUnits="userSpaceOnUse">
<stop stop-color="#FF3A44"/>
<stop offset="1" stop-color="#C31162"/>
</linearGradient>
<linearGradient id="paint9_linear_2803_4673" x1="6.25235" y1="25.1565" x2="-1.86475" y2="18.9148" gradientUnits="userSpaceOnUse">
<stop stop-color="#FF3A44"/>
<stop offset="1" stop-color="#C31162"/>
</linearGradient>
<linearGradient id="paint10_linear_2803_4673" x1="9.40351" y1="22.5377" x2="1.9946" y2="8.18795" gradientUnits="userSpaceOnUse">
<stop stop-color="#00A0FF"/>
<stop offset="0.01" stop-color="#00A1FF"/>
<stop offset="0.26" stop-color="#00BEFF"/>
<stop offset="0.51" stop-color="#00D2FF"/>
<stop offset="0.76" stop-color="#00DFFF"/>
<stop offset="1" stop-color="#00E3FF"/>
</linearGradient>
<linearGradient id="paint11_linear_2803_4673" x1="20.8273" y1="12.7808" x2="0.109107" y2="12.7808" gradientUnits="userSpaceOnUse">
<stop stop-color="#FFE000"/>
<stop offset="0.41" stop-color="#FFBD00"/>
<stop offset="0.78" stop-color="#FFA500"/>
<stop offset="1" stop-color="#FF9C00"/>
</linearGradient>
<linearGradient id="paint12_linear_2803_4673" x1="4.33771" y1="7.292" x2="7.95562" y2="4.50946" gradientUnits="userSpaceOnUse">
<stop stop-color="#32A071"/>
<stop offset="0.07" stop-color="#2DA771"/>
<stop offset="0.48" stop-color="#15CF74"/>
<stop offset="0.8" stop-color="#06E775"/>
<stop offset="1" stop-color="#00F076"/>
</linearGradient>
<linearGradient id="paint13_linear_2803_4673" x1="0.0243947" y1="1.68547" x2="3.64299" y2="-1.09707" gradientUnits="userSpaceOnUse">
<stop stop-color="#32A071"/>
<stop offset="0.07" stop-color="#2DA771"/>
<stop offset="0.48" stop-color="#15CF74"/>
<stop offset="0.8" stop-color="#06E775"/>
<stop offset="1" stop-color="#00F076"/>
</linearGradient>
<linearGradient id="paint14_linear_2803_4673" x1="11.6899" y1="21.3585" x2="4.28162" y2="7.00877" gradientUnits="userSpaceOnUse">
<stop stop-color="#00A0FF"/>
<stop offset="0.01" stop-color="#00A1FF"/>
<stop offset="0.26" stop-color="#00BEFF"/>
<stop offset="0.51" stop-color="#00D2FF"/>
<stop offset="0.76" stop-color="#00DFFF"/>
<stop offset="1" stop-color="#00E3FF"/>
</linearGradient>
<linearGradient id="paint15_linear_2803_4673" x1="-0.315211" y1="1.24042" x2="3.30271" y2="-1.54277" gradientUnits="userSpaceOnUse">
<stop stop-color="#32A071"/>
<stop offset="0.07" stop-color="#2DA771"/>
<stop offset="0.48" stop-color="#15CF74"/>
<stop offset="0.8" stop-color="#06E775"/>
<stop offset="1" stop-color="#00F076"/>
</linearGradient>
<linearGradient id="paint16_linear_2803_4673" x1="13.7634" y1="20.2884" x2="6.35452" y2="5.93859" gradientUnits="userSpaceOnUse">
<stop stop-color="#00A0FF"/>
<stop offset="0.01" stop-color="#00A1FF"/>
<stop offset="0.26" stop-color="#00BEFF"/>
<stop offset="0.51" stop-color="#00D2FF"/>
<stop offset="0.76" stop-color="#00DFFF"/>
<stop offset="1" stop-color="#00E3FF"/>
</linearGradient>
<linearGradient id="paint17_linear_2803_4673" x1="20.8273" y1="9.22319" x2="0.109107" y2="9.22319" gradientUnits="userSpaceOnUse">
<stop stop-color="#FFE000"/>
<stop offset="0.41" stop-color="#FFBD00"/>
<stop offset="0.78" stop-color="#FFA500"/>
<stop offset="1" stop-color="#FF9C00"/>
</linearGradient>
<linearGradient id="paint18_linear_2803_4673" x1="10.2546" y1="19.9474" x2="2.13759" y2="13.7057" gradientUnits="userSpaceOnUse">
<stop stop-color="#FF3A44"/>
<stop offset="1" stop-color="#C31162"/>
</linearGradient>
<linearGradient id="paint19_linear_2803_4673" x1="3.03313" y1="25.8278" x2="-4.37532" y2="11.4777" gradientUnits="userSpaceOnUse">
<stop stop-color="#00A0FF"/>
<stop offset="0.01" stop-color="#00A1FF"/>
<stop offset="0.26" stop-color="#00BEFF"/>
<stop offset="0.51" stop-color="#00D2FF"/>
<stop offset="0.76" stop-color="#00DFFF"/>
<stop offset="1" stop-color="#00E3FF"/>
</linearGradient>
<linearGradient id="paint20_linear_2803_4673" x1="5.9436" y1="25.5562" x2="-2.17323" y2="19.3149" gradientUnits="userSpaceOnUse">
<stop stop-color="#FF3A44"/>
<stop offset="1" stop-color="#C31162"/>
</linearGradient>
<linearGradient id="paint21_linear_2803_4673" x1="20.8283" y1="14.5938" x2="0.110052" y2="14.5938" gradientUnits="userSpaceOnUse">
<stop stop-color="#FFE000"/>
<stop offset="0.41" stop-color="#FFBD00"/>
<stop offset="0.78" stop-color="#FFA500"/>
<stop offset="1" stop-color="#FF9C00"/>
</linearGradient>
<linearGradient id="paint22_linear_2803_4673" x1="14.5982" y1="14.301" x2="6.48122" y2="8.05918" gradientUnits="userSpaceOnUse">
<stop stop-color="#FF3A44"/>
<stop offset="1" stop-color="#C31162"/>
</linearGradient>
<linearGradient id="paint23_linear_2803_4673" x1="3.10133" y1="25.7921" x2="-4.30704" y2="11.4424" gradientUnits="userSpaceOnUse">
<stop stop-color="#00A0FF"/>
<stop offset="0.01" stop-color="#00A1FF"/>
<stop offset="0.26" stop-color="#00BEFF"/>
<stop offset="0.51" stop-color="#00D2FF"/>
<stop offset="0.76" stop-color="#00DFFF"/>
<stop offset="1" stop-color="#00E3FF"/>
</linearGradient>
<linearGradient id="paint24_linear_2803_4673" x1="3.0167" y1="25.8359" x2="-4.39186" y2="11.4862" gradientUnits="userSpaceOnUse">
<stop stop-color="#00A0FF"/>
<stop offset="0.01" stop-color="#00A1FF"/>
<stop offset="0.26" stop-color="#00BEFF"/>
<stop offset="0.51" stop-color="#00D2FF"/>
<stop offset="0.76" stop-color="#00DFFF"/>
<stop offset="1" stop-color="#00E3FF"/>
</linearGradient>
<linearGradient id="paint25_linear_2803_4673" x1="3.0294" y1="25.8307" x2="-4.37945" y2="11.4807" gradientUnits="userSpaceOnUse">
<stop stop-color="#00A0FF"/>
<stop offset="0.01" stop-color="#00A1FF"/>
<stop offset="0.26" stop-color="#00BEFF"/>
<stop offset="0.51" stop-color="#00D2FF"/>
<stop offset="0.76" stop-color="#00DFFF"/>
<stop offset="1" stop-color="#00E3FF"/>
</linearGradient>
<linearGradient id="paint26_linear_2803_4673" x1="5.95287" y1="25.5471" x2="-2.1641" y2="19.3056" gradientUnits="userSpaceOnUse">
<stop stop-color="#FF3A44"/>
<stop offset="1" stop-color="#C31162"/>
</linearGradient>
<linearGradient id="paint27_linear_2803_4673" x1="20.8282" y1="12.8492" x2="0.110053" y2="12.8492" gradientUnits="userSpaceOnUse">
<stop stop-color="#FFE000"/>
<stop offset="0.41" stop-color="#FFBD00"/>
<stop offset="0.78" stop-color="#FFA500"/>
<stop offset="1" stop-color="#FF9C00"/>
</linearGradient>
<linearGradient id="paint28_linear_2803_4673" x1="20.8303" y1="14.5938" x2="0.111664" y2="14.5938" gradientUnits="userSpaceOnUse">
<stop stop-color="#FFE000"/>
<stop offset="0.41" stop-color="#FFBD00"/>
<stop offset="0.78" stop-color="#FFA500"/>
<stop offset="1" stop-color="#FF9C00"/>
</linearGradient>
<linearGradient id="paint29_linear_2803_4673" x1="14.6124" y1="14.2845" x2="6.49538" y2="8.04262" gradientUnits="userSpaceOnUse">
<stop stop-color="#FF3A44"/>
<stop offset="1" stop-color="#C31162"/>
</linearGradient>
<linearGradient id="paint30_linear_2803_4673" x1="20.8303" y1="14.5938" x2="0.111664" y2="14.5938" gradientUnits="userSpaceOnUse">
<stop stop-color="#FFE000"/>
<stop offset="0.41" stop-color="#FFBD00"/>
<stop offset="0.78" stop-color="#FFA500"/>
<stop offset="1" stop-color="#FF9C00"/>
</linearGradient>
<linearGradient id="paint31_linear_2803_4673" x1="14.6124" y1="14.2845" x2="6.49538" y2="8.04262" gradientUnits="userSpaceOnUse">
<stop stop-color="#FF3A44"/>
<stop offset="1" stop-color="#C31162"/>
</linearGradient>
<linearGradient id="paint32_linear_2803_4673" x1="11.2896" y1="21.565" x2="3.88137" y2="7.21532" gradientUnits="userSpaceOnUse">
<stop stop-color="#00A0FF"/>
<stop offset="0.01" stop-color="#00A1FF"/>
<stop offset="0.26" stop-color="#00BEFF"/>
<stop offset="0.51" stop-color="#00D2FF"/>
<stop offset="0.76" stop-color="#00DFFF"/>
<stop offset="1" stop-color="#00E3FF"/>
</linearGradient>
<linearGradient id="paint33_linear_2803_4673" x1="20.8302" y1="9.15477" x2="0.112003" y2="9.15477" gradientUnits="userSpaceOnUse">
<stop stop-color="#FFE000"/>
<stop offset="0.41" stop-color="#FFBD00"/>
<stop offset="0.78" stop-color="#FFA500"/>
<stop offset="1" stop-color="#FF9C00"/>
</linearGradient>
<linearGradient id="paint34_linear_2803_4673" x1="4.00397" y1="6.85564" x2="7.62188" y2="4.07242" gradientUnits="userSpaceOnUse">
<stop stop-color="#32A071"/>
<stop offset="0.07" stop-color="#2DA771"/>
<stop offset="0.48" stop-color="#15CF74"/>
<stop offset="0.8" stop-color="#06E775"/>
<stop offset="1" stop-color="#00F076"/>
</linearGradient>
<linearGradient id="paint35_linear_2803_4673" x1="11.7184" y1="21.345" x2="4.31016" y2="6.99504" gradientUnits="userSpaceOnUse">
<stop stop-color="#00A0FF"/>
<stop offset="0.01" stop-color="#00A1FF"/>
<stop offset="0.26" stop-color="#00BEFF"/>
<stop offset="0.51" stop-color="#00D2FF"/>
<stop offset="0.76" stop-color="#00DFFF"/>
<stop offset="1" stop-color="#00E3FF"/>
</linearGradient>
<linearGradient id="paint36_linear_2803_4673" x1="-0.284057" y1="1.27874" x2="3.33455" y2="-1.50449" gradientUnits="userSpaceOnUse">
<stop stop-color="#32A071"/>
<stop offset="0.07" stop-color="#2DA771"/>
<stop offset="0.48" stop-color="#15CF74"/>
<stop offset="0.8" stop-color="#06E775"/>
<stop offset="1" stop-color="#00F076"/>
</linearGradient>
<linearGradient id="paint37_linear_2803_4673" x1="20.8283" y1="7.41018" x2="0.110052" y2="7.41018" gradientUnits="userSpaceOnUse">
<stop stop-color="#FFE000"/>
<stop offset="0.41" stop-color="#FFBD00"/>
<stop offset="0.78" stop-color="#FFA500"/>
<stop offset="1" stop-color="#FF9C00"/>
</linearGradient>
<linearGradient id="paint38_linear_2803_4673" x1="8.35096" y1="12.5079" x2="11.9688" y2="9.72464" gradientUnits="userSpaceOnUse">
<stop stop-color="#32A071"/>
<stop offset="0.07" stop-color="#2DA771"/>
<stop offset="0.48" stop-color="#15CF74"/>
<stop offset="0.8" stop-color="#06E775"/>
<stop offset="1" stop-color="#00F076"/>
</linearGradient>
</defs>
</svg>
