<svg width="85" height="48" viewBox="0 0 85 48" fill="none" xmlns="http://www.w3.org/2000/svg">
<path d="M1.11719 0C9.1377 0.001193 17.157 0 25.1763 0C25.1775 1.76205 25.1763 3.52411 25.1763 5.28616C22.0996 5.28497 19.0241 5.28616 15.9473 5.28616C15.9461 13.8316 15.9473 22.3782 15.9473 30.9248C13.9896 30.9248 12.0331 30.9248 10.0754 30.9248C10.0754 22.3782 10.0754 13.8328 10.0754 5.28616C7.08932 5.28616 4.10326 5.28616 1.11719 5.28616C1.11719 3.52411 1.11719 1.76205 1.11719 0Z" fill="#1D0E09"/>
<path d="M28.1177 0C33.275 0 38.4336 0 43.5921 0C45.2909 0.0250529 47.0088 0.139581 48.648 0.619165C49.7503 0.944853 50.8383 1.46619 51.6018 2.3502C52.7113 3.6458 53.111 5.37683 53.2911 7.03152C53.4629 8.95224 53.4176 10.8956 53.1635 12.8056C52.9738 13.9771 52.7101 15.2357 51.8536 16.1162C50.8813 17.098 49.5189 17.549 48.2018 17.8472C48.0539 17.8639 47.9393 17.9486 47.8439 18.0572C48.8627 18.1765 49.9102 18.3495 50.7882 18.9173C51.918 19.6033 52.6004 20.8428 52.8497 22.1158C53.0883 23.1883 53.0263 24.2942 53.0334 25.3846C53.0334 27.2313 53.0334 29.0781 53.0334 30.9248C51.0769 30.9248 49.1216 30.9248 47.1663 30.9248C47.1639 28.997 47.1699 27.0691 47.1639 25.1412C47.1424 23.9446 46.8859 22.6621 46.0365 21.7662C45.1728 20.844 43.8593 20.5398 42.6389 20.5207C39.7542 20.5136 36.8683 20.5195 33.9837 20.5183C33.9837 23.9876 33.9837 27.4556 33.9837 30.9248C32.0284 30.9248 30.073 30.9248 28.1177 30.9248C28.1165 20.6162 28.1177 10.3087 28.1177 0ZM33.9837 15.5459C36.829 15.5471 39.6743 15.5447 42.5208 15.5471C43.6529 15.528 44.8447 15.4588 45.8611 14.9077C46.627 14.5092 46.9802 13.6538 47.1544 12.8533C47.4514 11.4432 47.4407 9.98657 47.3345 8.55617C47.2558 7.76282 47.1508 6.94324 46.7642 6.2334C46.4946 5.73354 45.9673 5.44483 45.4424 5.28378C44.4976 4.99507 43.4978 4.96644 42.5184 4.97718C39.6731 4.97718 36.829 4.97718 33.9837 4.97718C33.9837 8.5001 33.9837 12.023 33.9837 15.5459Z" fill="#1D0E09"/>
<path d="M55.8765 0.001193C58.2195 -0.001193 60.5626 0.001193 62.9056 0C64.2334 2.21181 65.5565 4.42601 66.8819 6.63783C68.0057 8.48816 69.0352 10.3934 70.0218 12.3201C70.9583 10.6379 71.797 8.89975 72.8039 7.2558C74.2474 4.8376 75.691 2.4194 77.1333 0C79.4537 0.001193 81.7752 -0.001193 84.0956 0.001193C81.001 4.99627 77.9016 9.98776 74.8034 14.9804C78.1056 20.2941 81.409 25.6065 84.7052 30.9225C82.4004 30.9272 80.0955 30.9236 77.7906 30.9248C76.3901 28.5794 74.9859 26.2352 73.5853 23.8897C72.31 21.8342 71.2554 19.6546 70.0755 17.5454C69.1593 19.2323 68.2598 20.9275 67.2696 22.5727C65.5994 25.3583 63.9232 28.1404 62.2507 30.9248C59.885 30.9236 57.5181 30.9272 55.1523 30.9236C58.5345 25.6077 61.9214 20.2941 65.3047 14.9793C62.16 9.98776 59.02 4.99388 55.8765 0.001193Z" fill="#1D0E09"/>
<path d="M1.09375 34.8125C29.0098 34.8125 56.9248 34.8125 84.8409 34.8125C84.8397 35.1298 84.8397 35.4484 84.8409 35.7669C56.9248 35.7669 29.0098 35.7669 1.09375 35.7669C1.09375 35.4484 1.09375 35.1298 1.09375 34.8125Z" fill="#1D0E09"/>
<path d="M2.2778 38.848C2.97809 38.7656 3.69031 38.7645 4.39299 38.836C4.80934 38.8993 5.28296 38.9696 5.56809 39.3144C5.89497 39.7224 5.87946 40.2712 5.88423 40.7651C5.481 40.7675 5.07657 40.7663 4.67334 40.7687C4.60892 40.443 4.6292 39.9252 4.2033 39.8608C3.63782 39.7666 3.04609 39.7666 2.48777 39.9014C2.10124 39.9908 2.04636 40.4561 2.07261 40.7842C2.10124 41.0049 2.11317 41.3389 2.38637 41.3962C3.38133 41.6396 4.45383 41.4535 5.41658 41.8507C5.96297 42.0917 6.025 42.767 6.04529 43.2871C6.03574 43.855 6.025 44.4956 5.64802 44.9585C5.23405 45.3462 4.62085 45.3593 4.08639 45.4154C3.19283 45.4273 2.23963 45.518 1.40453 45.1386C0.769858 44.7736 0.782981 43.9373 0.773438 43.2954C1.17667 43.2931 1.5811 43.2943 1.98433 43.2931C2.02728 43.6605 1.9557 44.2761 2.45079 44.3429C3.10097 44.4431 3.78575 44.4825 4.42878 44.3167C4.75566 44.2152 4.78787 43.8132 4.79622 43.5269C4.80457 43.2358 4.79264 42.8075 4.43951 42.7252C3.44217 42.5033 2.36609 42.6823 1.40573 42.2707C1.01323 42.1001 0.876035 41.6455 0.831894 41.2554C0.772245 40.6721 0.761508 40.0422 1.02993 39.5053C1.25779 39.0412 1.81134 38.9183 2.2778 38.848Z" fill="#1D0E09"/>
<path d="M36.918 38.832C37.2878 38.832 37.6588 38.832 38.0298 38.832C38.0298 39.1494 38.0298 39.4667 38.0298 39.784C37.6588 39.784 37.289 39.784 36.918 39.784C36.918 39.4667 36.918 39.1494 36.918 38.832Z" fill="#1D0E09"/>
<path d="M51.2344 38.832C52.9272 38.832 54.6213 38.832 56.3142 38.832C56.3142 39.215 56.3142 39.5967 56.3142 39.9797C55.6675 39.9797 55.0209 39.9785 54.3743 39.9797C54.3743 41.7763 54.3731 43.573 54.3743 45.3708C53.9532 45.3708 53.5321 45.3708 53.111 45.3696C53.1122 43.573 53.111 41.7763 53.1122 39.9785C52.4858 39.9797 51.8595 39.9785 51.2344 39.9797C51.2344 39.5967 51.2344 39.2138 51.2344 38.832Z" fill="#1D0E09"/>
<path d="M66.0547 39.784C66.0547 39.4667 66.0547 39.1494 66.0559 38.832C66.4269 38.832 66.7979 38.832 67.1701 38.832C67.1701 39.1494 67.1701 39.4667 67.1713 39.784C66.7979 39.784 66.4269 39.784 66.0547 39.784Z" fill="#1D0E09"/>
<path d="M73.3918 38.832C73.7628 38.832 74.1339 38.832 74.5061 38.832C74.5061 39.1494 74.5061 39.4667 74.5073 39.784C74.1339 39.784 73.7628 39.784 73.3906 39.784C73.3906 39.4667 73.3906 39.1494 73.3918 38.832Z" fill="#1D0E09"/>
<path d="M6.82149 40.7881C7.1937 40.7881 7.56592 40.7881 7.93813 40.7881C7.93932 41.7425 7.93574 42.6969 7.93694 43.6501C7.95245 43.8994 7.93932 44.1929 8.12185 44.3874C8.68614 44.7584 9.65724 44.5055 9.74313 43.7598C9.84812 42.7756 9.75984 41.7771 9.78847 40.7881C10.1583 40.7881 10.5293 40.7881 10.8991 40.7881C10.8991 42.3151 10.8991 43.8422 10.8991 45.3704C10.5257 45.3704 10.1535 45.3704 9.78012 45.3692C9.80517 45.127 9.83022 44.8872 9.86243 44.6474C9.45204 45.4706 8.37238 45.5839 7.59216 45.2952C7.0744 45.0972 6.82268 44.5269 6.82745 44.002C6.81194 42.9307 6.82745 41.8594 6.82149 40.7881Z" fill="#1D0E09"/>
<path d="M12.3838 40.9327C12.972 40.7096 13.615 40.7359 14.2341 40.743C14.6398 40.7705 15.0776 40.7884 15.4271 41.021C15.7576 41.2584 15.7731 41.6986 15.8089 42.0661C15.4522 42.0673 15.0967 42.0661 14.74 42.0673C14.6529 41.8931 14.6708 41.602 14.4393 41.5507C14.0206 41.472 13.5506 41.429 13.1581 41.6223C12.8204 41.7953 12.8228 42.5242 13.269 42.517C14.0122 42.6351 14.8044 42.5313 15.5083 42.8379C15.8936 43.0205 15.9556 43.5 15.9664 43.8794C15.9819 44.3518 15.8697 44.9209 15.414 45.1631C14.8318 45.4578 14.1554 45.4315 13.5207 45.4291C13.0602 45.4053 12.5592 45.3898 12.1667 45.1178C11.7933 44.8434 11.7861 44.3399 11.7539 43.9224C12.1321 43.9176 12.5091 43.9188 12.8873 43.9104C12.9171 44.1288 12.8717 44.4222 13.1139 44.5368C13.5541 44.742 14.0981 44.7253 14.5467 44.5475C14.9762 44.3745 14.9249 43.6384 14.4608 43.5561C13.7569 43.4619 13.0077 43.574 12.3397 43.2817C11.8959 43.0765 11.8004 42.529 11.8004 42.0899C11.7897 41.6485 11.9221 41.1021 12.3838 40.9327Z" fill="#1D0E09"/>
<path d="M16.8047 40.7883C17.1817 40.7871 17.5599 40.7871 17.938 40.7918C17.9213 41.0102 17.9046 41.2285 17.882 41.448C18.1623 41.0328 18.6228 40.7584 19.1286 40.7441C19.7526 40.6976 20.5638 40.7811 20.8656 41.4229C21.1794 42.1554 21.1365 42.981 21.0923 43.76C21.0434 44.3327 20.9002 45.0437 20.2942 45.2751C19.514 45.5531 18.4236 45.5412 17.9452 44.749C17.975 45.608 17.9524 46.4681 17.9595 47.3283C17.5742 47.3283 17.1888 47.3283 16.8047 47.3283C16.8047 45.1475 16.8059 42.9679 16.8047 40.7883ZM18.4677 41.6878C18.0382 41.7975 18.0013 42.3058 17.9786 42.6708C17.9786 43.1922 17.907 43.7624 18.1599 44.2408C18.4737 44.6202 19.0583 44.5856 19.4937 44.4782C19.922 44.3792 19.9554 43.8698 19.9816 43.5131C19.9852 42.975 20.0532 42.3905 19.8063 41.893C19.4686 41.547 18.902 41.5888 18.4677 41.6878Z" fill="#1D0E09"/>
<path d="M22.0892 41.4708C22.3863 40.8433 23.1736 40.7657 23.7844 40.7383C24.4108 40.7395 25.1469 40.7192 25.6336 41.1809C26.1084 41.7643 26.0332 42.5767 26.0511 43.2829C25.0204 43.2865 23.9896 43.2758 22.9589 43.2889C22.9935 43.6671 22.9207 44.1395 23.2321 44.4222C23.6568 44.6608 24.1925 44.6286 24.6506 44.5117C24.9178 44.4342 24.8963 44.1049 24.9691 43.8902C25.3342 43.8902 25.7004 43.889 26.0655 43.8914C26.0953 44.4211 25.8877 45.0056 25.3544 45.2072C24.5325 45.5246 23.59 45.4912 22.7489 45.2657C22.1882 45.1237 21.958 44.5332 21.9031 44.0142C21.81 43.1708 21.7552 42.2689 22.0892 41.4708ZM23.343 41.6593C22.9637 41.8012 23.0257 42.2796 22.9672 42.6041C23.6294 42.6065 24.2915 42.6065 24.9524 42.6053C24.9118 42.2975 24.9894 41.8752 24.6816 41.6867C24.2569 41.534 23.7737 41.5352 23.343 41.6593Z" fill="#1D0E09"/>
<path d="M26.9453 40.7883C27.3128 40.7883 27.6814 40.7871 28.05 40.7907C28.0297 41.0353 28.0095 41.2786 27.9844 41.5244C28.4091 40.6714 29.5401 40.5784 30.3358 40.904C30.7975 41.0973 31.0504 41.6008 31.054 42.0863C31.0731 43.1803 31.0552 44.2754 31.0611 45.3706C30.6901 45.3694 30.3203 45.3694 29.9505 45.3706C29.9445 44.3625 29.9624 43.3545 29.9445 42.3464C29.9469 42.0839 29.8538 41.7761 29.5735 41.6962C29.1691 41.5793 28.6752 41.5924 28.3399 41.8751C28.0727 42.103 28.0512 42.4788 28.0536 42.8057C28.056 43.6599 28.056 44.5152 28.056 45.3706C27.685 45.3706 27.3151 45.3694 26.9453 45.3706C26.9453 43.8424 26.9453 42.3154 26.9453 40.7883Z" fill="#1D0E09"/>
<path d="M32.4396 40.9614C32.9788 40.724 33.5849 40.7407 34.1611 40.7383C34.6144 40.7538 35.0952 40.7633 35.5032 40.9864C35.8695 41.2095 35.8886 41.6819 35.9494 42.0613C35.5867 42.0673 35.2241 42.0673 34.8626 42.0673C34.7779 41.8776 34.7779 41.5567 34.5107 41.5388C34.1158 41.4732 33.6851 41.4433 33.3105 41.6056C32.9311 41.7666 32.9443 42.56 33.4358 42.5242C34.1504 42.6244 34.902 42.5469 35.5855 42.8153C36.0043 42.9799 36.0806 43.4857 36.0914 43.8806C36.1021 44.3519 35.9971 44.915 35.5426 45.1595C34.9723 45.4554 34.3055 45.4291 33.6803 45.4303C33.2115 45.4101 32.7068 45.391 32.3012 45.1273C31.9207 44.8517 31.904 44.3435 31.8789 43.9188C32.2559 43.9176 32.6329 43.9188 33.0099 43.9128C33.0313 44.1407 32.9979 44.4437 33.258 44.5499C33.703 44.7384 34.2446 44.7277 34.6884 44.538C35.125 44.3459 35.0165 43.5705 34.5262 43.5442C33.8223 43.4714 33.0719 43.5728 32.4146 43.2567C32.0066 43.03 31.9254 42.517 31.9254 42.0923C31.9171 41.6724 32.0221 41.1618 32.4396 40.9614Z" fill="#1D0E09"/>
<path d="M36.918 40.7881C37.2878 40.7881 37.6588 40.7881 38.0298 40.7881C38.0298 42.3151 38.0298 43.8433 38.0298 45.3704C37.6588 45.3692 37.289 45.3704 36.918 45.3704C36.918 43.8433 36.918 42.3151 36.918 40.7881Z" fill="#1D0E09"/>
<path d="M40.1598 40.8068C40.9997 40.7161 41.9374 40.635 42.7021 41.0609C43.3261 41.6025 43.2079 42.5378 43.2282 43.2823C43.196 43.9933 43.1769 45.0073 42.3538 45.2686C41.5258 45.5084 40.6156 45.4869 39.7876 45.2638C39.178 45.1135 39.0003 44.4383 38.9549 43.8931C38.8941 43.0878 38.8511 42.2396 39.1339 41.4689C39.283 41.0394 39.7506 40.8724 40.1598 40.8068ZM40.5333 41.6884C40.0394 41.797 40.0704 42.403 40.0441 42.7967C40.062 43.3073 39.9785 43.8812 40.2553 44.3369C40.6561 44.622 41.2145 44.5802 41.669 44.4633C42.0663 44.3416 42.0555 43.8549 42.0961 43.5197C42.0973 42.9661 42.1879 42.3541 41.9124 41.8507C41.5342 41.5441 40.9806 41.6157 40.5333 41.6884Z" fill="#1D0E09"/>
<path d="M45.1614 41.5378C45.5718 40.6741 46.7087 40.5787 47.5044 40.8996C47.9697 41.0893 48.231 41.5903 48.231 42.0783C48.2465 43.1746 48.2322 44.2734 48.2369 45.3709C47.8659 45.3697 47.4961 45.3697 47.1263 45.3709C47.1239 44.3939 47.131 43.418 47.1251 42.4421C47.1251 42.1761 47.1 41.8361 46.8125 41.7228C46.4486 41.576 46.0096 41.5975 45.6601 41.7729C45.3332 41.9458 45.227 42.3371 45.233 42.6819C45.2258 43.5779 45.2342 44.475 45.2318 45.3709C44.8608 45.3709 44.4909 45.3697 44.1211 45.3709C44.1211 43.8427 44.1211 42.3157 44.1211 40.7886C44.4909 40.7886 44.8608 40.7875 45.2318 40.7898C45.2103 41.0392 45.1888 41.2885 45.1614 41.5378Z" fill="#1D0E09"/>
<path d="M56.8984 40.7886C57.273 40.7874 57.6476 40.7874 58.0234 40.791C57.9948 40.9985 57.9662 41.2061 57.934 41.4125C58.3324 40.7289 59.3345 40.4808 59.9704 40.9723C60.4214 41.3767 60.3963 42.0341 60.4011 42.5876C60.0551 42.5876 59.7091 42.5876 59.3632 42.59C59.3429 42.2679 59.4073 41.8253 59.0566 41.6583C58.5961 41.4507 58.0664 41.8301 58.0437 42.318C57.9662 43.332 58.0318 44.3532 58.0103 45.3709C57.6393 45.3697 57.2683 45.3697 56.8984 45.3709C56.8984 43.8438 56.8984 42.3156 56.8984 40.7886Z" fill="#1D0E09"/>
<path d="M61.6047 40.9003C62.4243 40.6653 63.3166 40.6904 64.1446 40.8765C64.7077 40.9874 64.988 41.5708 64.9904 42.1017C65.0202 43.1909 64.9928 44.2813 65.0023 45.3705C64.6265 45.3705 64.2508 45.3705 63.8762 45.3681C63.9012 45.1689 63.9298 44.9708 63.962 44.774C63.7354 45.071 63.4324 45.3263 63.0506 45.3788C62.4434 45.4731 61.7431 45.479 61.2337 45.0854C60.7624 44.6857 60.7338 43.9699 60.9032 43.4175C61.0643 42.9189 61.5856 42.6504 62.0795 42.6027C62.7046 42.5407 63.4455 42.5371 63.9012 43.0441C63.8535 42.592 63.9954 42.0563 63.7032 41.6686C63.3512 41.4431 62.8788 41.4539 62.4911 41.5744C62.2346 41.6447 62.1773 41.9251 62.0843 42.1375C61.7168 42.1386 61.3506 42.1386 60.9855 42.1375C61.007 41.6734 61.0798 41.0614 61.6047 40.9003ZM62.2406 43.4509C61.7586 43.6788 61.8409 44.6332 62.435 44.6404C62.8132 44.6845 63.2212 44.7084 63.5791 44.5497C64.0086 44.3576 64.0026 43.6514 63.5707 43.4676C63.1544 43.2947 62.6581 43.2744 62.2406 43.4509Z" fill="#1D0E09"/>
<path d="M66.0547 40.7881C66.4269 40.7881 66.7979 40.7881 67.1713 40.7881C67.1701 42.3151 67.1701 43.8433 67.1701 45.3704C66.7979 45.3692 66.4269 45.3692 66.0559 45.3704C66.0547 43.8433 66.0559 42.3163 66.0547 40.7881Z" fill="#1D0E09"/>
<path d="M69.2641 41.5388C69.6733 40.6739 70.8079 40.5796 71.6048 40.8982C72.0689 41.0867 72.3325 41.5889 72.3325 42.0757C72.348 43.1732 72.3337 44.272 72.3385 45.3707C71.9675 45.3695 71.5976 45.3695 71.2278 45.3707C71.2254 44.3925 71.2326 43.4154 71.2266 42.4371C71.2254 42.1735 71.2004 41.8382 70.9164 41.7237C70.3665 41.4923 69.4872 41.6462 69.3703 42.3321C69.2832 43.3414 69.3572 44.3579 69.3333 45.3707C68.9623 45.3695 68.5925 45.3695 68.2227 45.3707C68.2227 43.8437 68.2227 42.3154 68.2227 40.7884C68.5925 40.7884 68.9623 40.7872 69.3321 40.7896C69.3119 41.0389 69.2904 41.2883 69.2641 41.5388Z" fill="#1D0E09"/>
<path d="M73.3906 40.7881C73.7628 40.7881 74.1351 40.7881 74.5073 40.7881C74.5061 42.3151 74.5073 43.8422 74.5073 45.3704C74.1339 45.3692 73.7628 45.3692 73.3906 45.3704C73.3906 43.8422 73.3906 42.3151 73.3906 40.7881Z" fill="#1D0E09"/>
<path d="M75.5352 40.7888C75.9062 40.7888 76.2784 40.7888 76.6506 40.7888C76.6315 41.0358 76.6136 41.2827 76.5921 41.5309C76.9918 40.6791 78.1001 40.5908 78.8875 40.8819C79.3778 41.0596 79.6522 41.5822 79.657 42.0856C79.6713 43.1808 79.6558 44.276 79.6617 45.3711C79.2907 45.3699 78.9197 45.3699 78.5499 45.3711C78.5439 44.3547 78.5606 43.3383 78.5451 42.3218C78.5618 42.0439 78.4186 41.7468 78.1299 41.68C77.7267 41.5869 77.234 41.6001 76.919 41.9019C76.6757 42.1309 76.6554 42.4877 76.6506 42.8026C76.6494 43.658 76.653 44.5146 76.6518 45.3711C76.2784 45.3711 75.9074 45.3699 75.5352 45.3711C75.5352 43.8429 75.5352 42.3159 75.5352 40.7888Z" fill="#1D0E09"/>
<path d="M81.319 40.9187C82.135 40.5823 83.3018 40.6443 83.7563 41.5164C83.7229 41.2754 83.6955 41.0333 83.6728 40.7923C84.045 40.7875 84.4184 40.7875 84.7918 40.7887C84.7894 42.4159 84.7954 44.042 84.7906 45.6692C84.7739 46.1989 84.6654 46.83 84.1703 47.1259C83.6215 47.4337 82.9665 47.4039 82.3593 47.4003C81.9203 47.3788 81.4359 47.3537 81.0768 47.071C80.7332 46.7596 80.7344 46.2586 80.6927 45.8315C81.0494 45.8267 81.4073 45.8267 81.7664 45.8279C81.8201 46.0665 81.8069 46.4339 82.1267 46.4721C82.6229 46.5616 83.3423 46.6129 83.6108 46.0796C83.7444 45.643 83.6525 45.1741 83.6883 44.7256C83.464 45.1169 83.0596 45.3793 82.6051 45.396C81.9608 45.4473 81.1102 45.3722 80.8012 44.7041C80.497 43.9967 80.5316 43.1997 80.5626 42.4458C80.608 41.8767 80.7368 41.1776 81.319 40.9187ZM82.166 41.6834C82.005 41.7264 81.8356 41.8194 81.789 41.9924C81.6256 42.4875 81.6793 43.0208 81.6841 43.5338C81.7151 43.8428 81.7139 44.2579 82.0372 44.4154C82.4225 44.5597 82.8711 44.5562 83.2588 44.4202C83.6012 44.2734 83.6119 43.8487 83.6501 43.5338C83.6716 42.9957 83.7217 42.4136 83.4903 41.9113C83.1753 41.5391 82.5967 41.6131 82.166 41.6834Z" fill="#1D0E09"/>
</svg>
