<svg width="92" height="50" viewBox="0 0 92 50" fill="none" xmlns="http://www.w3.org/2000/svg">
<path d="M22.6655 0.0193023C24.5069 -0.00555124 26.3494 9.74162e-05 28.1909 0.0159133C28.192 0.843987 28.0813 1.66528 28.0417 2.49223C27.8904 3.19942 28.0101 3.92921 27.8937 4.64092C27.8226 5.08829 27.8745 5.54582 27.7898 5.99205C27.6712 6.66648 27.7864 7.35787 27.6622 8.03004C27.6045 8.40284 27.6362 8.78242 27.5729 9.15409C27.4588 9.78899 27.5447 10.4374 27.4701 11.0757C27.3729 11.5739 27.3809 12.0846 27.3831 12.5907C27.9683 11.2282 28.4089 9.80933 28.9387 8.42431C29.943 5.62151 30.9993 2.83679 31.9765 0.023822C33.8145 9.82444e-05 35.6559 -0.0191071 37.4928 0.033989C35.1623 6.54335 32.7639 13.0301 30.4152 19.5327C29.6855 21.4679 29.028 23.429 28.2688 25.3529C26.4364 25.3428 24.6029 25.3495 22.7705 25.3495C22.8281 24.6186 23.01 23.9024 22.9987 23.167C23.0405 22.4869 23.2326 21.8203 23.2168 21.1357C23.2529 20.3766 23.4619 19.6332 23.4427 18.8696C23.5263 18.0776 23.6788 17.2925 23.6822 16.4938C23.863 15.5855 23.8505 14.6546 24.0019 13.7441C24.064 13.0211 24.1781 12.2969 24.1217 11.5694L23.9556 11.7276C22.3559 16.1391 20.7438 20.5472 19.1431 24.9575C19.073 25.1338 18.9792 25.3959 18.7397 25.3484C17.0192 25.3518 15.2987 25.3382 13.5781 25.3574C13.5928 25.2128 13.5939 25.066 13.638 24.9282C16.4408 17.2462 19.2323 9.55966 22.0317 1.87767C22.243 1.25859 22.5141 0.657585 22.6655 0.0193023Z" fill="#1D0E09"/>
<path d="M38.8968 0.0151413C41.0647 0.0106225 43.2349 -0.0198778 45.4016 0.0309589C43.1049 6.4522 40.7371 12.8508 38.4189 19.2653C37.6609 21.2909 36.9684 23.3402 36.1742 25.351C34.0289 25.3465 31.8836 25.3499 29.7383 25.3499C30.1472 23.9773 30.6974 22.6488 31.173 21.2976C32.8032 16.8206 34.4288 12.3425 36.0635 7.86659C37.0012 5.24681 37.9885 2.64396 38.8968 0.0151413Z" fill="#1D0E09"/>
<path d="M46.8698 0.0429581C47.8515 -0.0361212 48.8378 0.0226238 49.8206 0.00454856C50.9774 0.0237535 52.1365 -0.0372486 53.2911 0.0418307C52.7014 1.40764 52.2596 2.83333 51.7287 4.22287C51.0328 6.1332 50.3324 8.0424 49.6399 9.95499C50.103 9.43419 50.4487 8.82754 50.8362 8.25139C52.3511 5.95583 53.865 3.65914 55.3833 1.36471C55.6691 0.922999 55.9865 0.4971 56.217 0.0226242C57.5489 -0.0157857 58.8808 0.0158467 60.2139 0.00567936C60.9437 0.0181061 61.6757 -0.0248217 62.4044 0.0384418C61.7695 1.07551 61.0126 2.03463 60.328 3.04006C58.4211 5.76265 56.4938 8.46943 54.5914 11.1931C54.4264 11.6179 54.5575 12.1014 54.4829 12.5477C54.3338 13.2899 54.4264 14.0513 54.3451 14.7992C54.2615 15.4386 54.3101 16.0859 54.2558 16.7276C54.1045 17.5455 54.1926 18.3837 54.1259 19.2095C54.0288 19.7326 54.083 20.2669 54.0322 20.7945C53.8751 21.6135 53.9734 22.4529 53.9034 23.2787C53.8017 23.9611 53.839 24.6524 53.7972 25.3393C51.4756 25.3608 49.153 25.3438 46.8303 25.3495C46.871 24.8016 46.9896 24.2638 47.0415 23.7182C47.0404 23.107 47.2031 22.5139 47.2618 21.9084C47.2743 21.1142 47.4968 20.3404 47.5104 19.5451C47.6685 18.6774 47.7035 17.7929 47.8481 16.9241C47.8617 16.0339 48.2085 15.1595 48.0368 14.2716C46.9579 17.4257 45.7717 20.5426 44.6443 23.6798C44.4319 24.2412 44.267 24.8253 43.9812 25.3574C41.9115 25.337 39.8419 25.3585 37.7734 25.3461C39.32 20.9267 40.9728 16.5423 42.5555 12.1342C43.9461 8.32482 45.3244 4.50981 46.723 0.702709C46.8099 0.491454 46.8461 0.26664 46.8698 0.0429581Z" fill="#1D0E09"/>
<path d="M63.2374 0.0215802C66.1825 -0.0134406 69.1288 0.0170609 72.075 0.00689351C72.8139 0.0193203 73.5549 -0.0281288 74.2915 0.0441722C73.5922 1.72517 73.0647 3.47396 72.3744 5.15722C70.899 5.14931 69.4247 5.16739 67.9493 5.14818C67.5223 6.12424 67.2026 7.14437 66.8253 8.14077C66.6592 8.68415 66.3621 9.19252 66.3203 9.76867C67.6986 9.78222 69.0768 9.76189 70.4562 9.77884C69.8213 11.3875 69.2632 13.0267 68.6667 14.6501C67.2693 14.6501 65.8718 14.6546 64.4755 14.6479C63.8225 16.3255 63.2464 18.0313 62.6059 19.7123C62.5279 19.8829 62.5087 20.0704 62.485 20.2557C64.0756 20.2715 65.6674 20.2444 67.258 20.2693C66.9857 20.9889 66.7349 21.7187 66.4604 22.4383C66.3734 22.627 66.3508 22.8337 66.3294 23.0393C71.4469 21.6893 76.5521 20.2919 81.6707 18.9453C84.4871 18.1669 87.3227 17.4586 90.1322 16.6553C90.5152 16.5763 90.8891 16.4 91.2902 16.4509C88.7167 17.5151 86.1681 18.6504 83.6059 19.744C62.6465 28.7884 41.6849 37.8271 20.7232 46.8682C19.7358 47.2715 18.7846 47.7753 17.7543 48.0645C16.4563 48.4746 15.1221 48.7536 13.78 48.9705C13.2434 49.0056 12.7 49.0383 12.1815 49.192C11.585 49.2304 10.984 49.2123 10.3853 49.2021C10.0136 49.1287 9.64756 49.0078 9.26459 48.9931C7.28535 48.7616 5.38857 47.9866 3.7618 46.8433C2.55866 46.0051 1.45494 44.9488 0.824567 43.6045C0.43256 42.86 0.281179 42.0263 0.050719 41.2264C-0.0215821 40.326 -0.0102854 39.4178 0.0450702 38.5174C0.113982 38.1423 0.249548 37.7808 0.284569 37.4001C0.692392 35.2785 1.49561 33.2564 2.41858 31.3121C4.55259 26.9944 7.34522 23.0404 10.3672 19.3034C10.8055 18.7803 11.219 18.2358 11.7036 17.7545C10.5502 20.1382 9.58769 22.6789 9.39225 25.3405C9.22392 26.1946 9.38547 27.0611 9.45664 27.9162C9.7481 29.8492 10.6903 31.7188 12.2255 32.9581C13.6558 34.15 15.4599 34.8199 17.2889 35.0695C17.8571 35.0707 18.4084 35.2356 18.9789 35.1949C19.694 35.2345 20.3933 35.0661 21.1073 35.0492C23.0402 34.7182 24.9076 34.1059 26.8078 33.6303C34.222 31.6285 41.6487 29.6639 49.0641 27.6598C51.5664 27.026 54.0461 26.3008 56.5529 25.6806C56.7551 25.6026 57.0353 25.6207 57.1336 25.3834C56.1349 25.3281 55.1329 25.3755 54.1331 25.3631C54.1523 25.2219 54.1636 25.0796 54.2054 24.9451C56.6783 18.1737 59.1354 11.3966 61.6049 4.62286C62.1393 3.08647 62.7685 1.57944 63.2374 0.0215802Z" fill="#1D0E09"/>
</svg>
